<svg width="107" height="107" viewBox="0 0 107 107" fill="none" xmlns="http://www.w3.org/2000/svg">
<circle cx="53.5" cy="53.5" r="51" fill="#FAD9CD" stroke="white" stroke-width="5"/>
<g filter="url(#filter0_d_2_22)">
<rect x="30" y="20" width="46" height="66" rx="6" fill="#F3F3F3"/>
</g>
<path d="M44.7078 52C45.7078 50.5 49.3333 45.5 52 42V64H48.5C49.7 64 50.3333 60.6667 50.5 59L49.5 60C48 60.5 44.7 61 43.5 59C42 56.5 44.3155 52.5883 44.7078 52Z" fill="black" stroke="black"/>
<path d="M60.2922 52C59.2922 50.5 55.6667 45.5 53 42V64H56.5C55.3 64 54.6667 60.6667 54.5 59L55.5 60C57 60.5 60.3 61 61.5 59C63 56.5 60.6845 52.5883 60.2922 52Z" fill="black" stroke="black"/>
<path d="M34.457 24.3984C35.1133 24.4219 35.7969 24.4336 36.5078 24.4336C36.8438 24.4336 37.1641 24.4258 37.4688 24.4102C37.7734 24.3945 37.9297 24.3867 37.9375 24.3867C38.1484 24.3867 38.3418 24.3926 38.5176 24.4043C38.6973 24.4121 38.8984 24.4316 39.1211 24.4629C39.3477 24.4941 39.5488 24.5371 39.7246 24.5918C39.9004 24.6465 40.0762 24.7227 40.252 24.8203C40.4316 24.918 40.5801 25.0332 40.6973 25.166C40.8184 25.2988 40.916 25.4629 40.9902 25.6582C41.0645 25.8535 41.1016 26.0723 41.1016 26.3145C41.1016 27.0293 40.6738 27.5664 39.8184 27.9258V27.9727C40.459 28.0898 40.9941 28.3555 41.4238 28.7695C41.8574 29.1836 42.0742 29.7129 42.0742 30.3574C42.0742 30.7012 42.0117 31.0117 41.8867 31.2891C41.7656 31.5625 41.6094 31.7891 41.418 31.9688C41.2266 32.1484 40.9863 32.3047 40.6973 32.4375C40.4082 32.5703 40.127 32.6719 39.8535 32.7422C39.5801 32.8125 39.2656 32.8691 38.9102 32.9121C38.5586 32.9512 38.2578 32.9766 38.0078 32.9883C37.7578 32.9961 37.4785 33 37.1699 33C36.1113 33 35.2031 33.0117 34.4453 33.0352C34.4297 32.9883 34.4219 32.9492 34.4219 32.918C34.4219 32.8906 34.4297 32.8379 34.4453 32.7598C34.5625 32.748 34.6562 32.7383 34.7266 32.7305C34.7969 32.7227 34.8926 32.709 35.0137 32.6895C35.1387 32.6699 35.2383 32.6484 35.3125 32.625C35.3906 32.5977 35.4707 32.5645 35.5527 32.5254C35.6348 32.4863 35.6953 32.4395 35.7344 32.3848C35.7773 32.3301 35.7988 32.2676 35.7988 32.1973C35.8457 30.9746 35.8691 29.7422 35.8691 28.5C35.8691 27.2344 35.8496 26.1426 35.8105 25.2246C35.8066 25.123 35.7617 25.0371 35.6758 24.9668C35.5938 24.8965 35.4688 24.8418 35.3008 24.8027C35.1328 24.7637 34.998 24.7383 34.8965 24.7266C34.7949 24.7109 34.6484 24.6934 34.457 24.6738C34.4414 24.6035 34.4336 24.5547 34.4336 24.5273C34.4336 24.5039 34.4414 24.4609 34.457 24.3984ZM37.1055 28.5V28.9336L37.1699 32.6016C37.4316 32.6016 37.6641 32.5977 37.8672 32.5898C38.0703 32.5781 38.293 32.5547 38.5352 32.5195C38.7773 32.4805 38.9883 32.4297 39.168 32.3672C39.3477 32.3047 39.5273 32.2188 39.707 32.1094C39.8867 31.9961 40.0332 31.8633 40.1465 31.7109C40.2598 31.5586 40.3516 31.3711 40.4219 31.1484C40.4922 30.9219 40.5273 30.668 40.5273 30.3867C40.5273 30.1133 40.4824 29.8691 40.3926 29.6543C40.3027 29.4355 40.1758 29.2539 40.0117 29.1094C39.8516 28.9609 39.6543 28.8379 39.4199 28.7402C39.1895 28.6426 38.9375 28.5723 38.6641 28.5293C38.3945 28.4863 38.0996 28.4648 37.7793 28.4648C37.5566 28.4648 37.332 28.4766 37.1055 28.5ZM37.1816 24.8027L37.1055 28.1426C38.6992 28.1426 39.4961 27.5332 39.4961 26.3145C39.4961 25.7832 39.3301 25.3926 38.998 25.1426C38.6699 24.8926 38.2324 24.7676 37.6855 24.7676C37.5645 24.7676 37.3965 24.7793 37.1816 24.8027Z" fill="black"/>
<path d="M70.543 81.6016C69.8867 81.5781 69.2031 81.5664 68.4922 81.5664C68.1562 81.5664 67.8359 81.5742 67.5312 81.5898C67.2266 81.6055 67.0703 81.6133 67.0625 81.6133C66.8516 81.6133 66.6582 81.6074 66.4824 81.5957C66.3027 81.5879 66.1016 81.5684 65.8789 81.5371C65.6523 81.5059 65.4512 81.4629 65.2754 81.4082C65.0996 81.3535 64.9238 81.2773 64.748 81.1797C64.5684 81.082 64.4199 80.9668 64.3027 80.834C64.1816 80.7012 64.084 80.5371 64.0098 80.3418C63.9355 80.1465 63.8984 79.9277 63.8984 79.6855C63.8984 78.9707 64.3262 78.4336 65.1816 78.0742V78.0273C64.541 77.9102 64.0059 77.6445 63.5762 77.2305C63.1426 76.8164 62.9258 76.2871 62.9258 75.6426C62.9258 75.2988 62.9883 74.9883 63.1133 74.7109C63.2344 74.4375 63.3906 74.2109 63.582 74.0312C63.7734 73.8516 64.0137 73.6953 64.3027 73.5625C64.5918 73.4297 64.873 73.3281 65.1465 73.2578C65.4199 73.1875 65.7344 73.1309 66.0898 73.0879C66.4414 73.0488 66.7422 73.0234 66.9922 73.0117C67.2422 73.0039 67.5215 73 67.8301 73C68.8887 73 69.7969 72.9883 70.5547 72.9648C70.5703 73.0117 70.5781 73.0508 70.5781 73.082C70.5781 73.1094 70.5703 73.1621 70.5547 73.2402C70.4375 73.252 70.3438 73.2617 70.2734 73.2695C70.2031 73.2773 70.1074 73.291 69.9863 73.3105C69.8613 73.3301 69.7617 73.3516 69.6875 73.375C69.6094 73.4023 69.5293 73.4355 69.4473 73.4746C69.3652 73.5137 69.3047 73.5605 69.2656 73.6152C69.2227 73.6699 69.2012 73.7324 69.2012 73.8027C69.1543 75.0254 69.1309 76.2578 69.1309 77.5C69.1309 78.7656 69.1504 79.8574 69.1895 80.7754C69.1934 80.877 69.2383 80.9629 69.3242 81.0332C69.4062 81.1035 69.5312 81.1582 69.6992 81.1973C69.8672 81.2363 70.002 81.2617 70.1035 81.2734C70.2051 81.2891 70.3516 81.3066 70.543 81.3262C70.5586 81.3965 70.5664 81.4453 70.5664 81.4727C70.5664 81.4961 70.5586 81.5391 70.543 81.6016ZM67.8945 77.5V77.0664L67.8301 73.3984C67.5684 73.3984 67.3359 73.4023 67.1328 73.4102C66.9297 73.4219 66.707 73.4453 66.4648 73.4805C66.2227 73.5195 66.0117 73.5703 65.832 73.6328C65.6523 73.6953 65.4727 73.7812 65.293 73.8906C65.1133 74.0039 64.9668 74.1367 64.8535 74.2891C64.7402 74.4414 64.6484 74.6289 64.5781 74.8516C64.5078 75.0781 64.4727 75.332 64.4727 75.6133C64.4727 75.8867 64.5176 76.1309 64.6074 76.3457C64.6973 76.5645 64.8242 76.7461 64.9883 76.8906C65.1484 77.0391 65.3457 77.1621 65.5801 77.2598C65.8105 77.3574 66.0625 77.4277 66.3359 77.4707C66.6055 77.5137 66.9004 77.5352 67.2207 77.5352C67.4434 77.5352 67.668 77.5234 67.8945 77.5ZM67.8184 81.1973L67.8945 77.8574C66.3008 77.8574 65.5039 78.4668 65.5039 79.6855C65.5039 80.2168 65.6699 80.6074 66.002 80.8574C66.3301 81.1074 66.7676 81.2324 67.3145 81.2324C67.4355 81.2324 67.6035 81.2207 67.8184 81.1973Z" fill="black"/>
<defs>
<filter id="filter0_d_2_22" x="26" y="20" width="54" height="74" filterUnits="userSpaceOnUse" color-interpolation-filters="sRGB">
<feFlood flood-opacity="0" result="BackgroundImageFix"/>
<feColorMatrix in="SourceAlpha" type="matrix" values="0 0 0 0 0 0 0 0 0 0 0 0 0 0 0 0 0 0 127 0" result="hardAlpha"/>
<feOffset dy="4"/>
<feGaussianBlur stdDeviation="2"/>
<feComposite in2="hardAlpha" operator="out"/>
<feColorMatrix type="matrix" values="0 0 0 0 0 0 0 0 0 0 0 0 0 0 0 0 0 0 0.25 0"/>
<feBlend mode="normal" in2="BackgroundImageFix" result="effect1_dropShadow_2_22"/>
<feBlend mode="normal" in="SourceGraphic" in2="effect1_dropShadow_2_22" result="shape"/>
</filter>
</defs>
</svg>
